<?xml-stylesheet type="text/css" href="/assets/css/logo.css"?>
<svg aria-hidden="true" role="img" xmlns="http://www.w3.org/2000/svg" width="300" height="44" viewBox="0 0 66 12">
  <g aria-label="techjun" id="techjun" transform="translate(-8, 0)">
    <path d="M 6.0362528,2.5831534 V 11.195891 H 2.5911576 V 2.5831534 H 0.00733619 V -6.6800788e-4 H 8.6200742 V 2.5831534 Z" class="logo-text-t"/>
    <path d="m 12.926443,8.61207 h 5.167643 v 2.583821 H 9.4813476 V -6.6800788e-4 H 18.094086 V 2.5831534 H 12.926443 V 4.305701 h 5.167643 v 2.5838214 h -5.167643 z" class="logo-text-e"/>
    <path d="M 24.123002,2.5831534 H 22.400454 V 8.61207 h 1.722548 V 6.8895224 h 3.445095 V 11.195891 H 18.955359 V -6.6800788e-4 h 8.612738 V 4.305701 h -3.445095 z" class="logo-text-c"/>
    <path d="M 31.874467,6.8895224 V 11.195891 H 28.429371 V -6.6800788e-4 h 3.445096 V 4.305701 h 1.722547 V -6.6800788e-4 h 3.445095 V 11.195891 H 33.597014 V 6.8895224 Z" class="logo-text-h"/>
    <path d="M 37.903382,11.195891 V 6.8895224 h 3.445095 V 8.61207 h 1.722548 V -6.6800788e-4 H 46.51612 V 11.195891 Z" class="logo-text-j"/>
    <path d="M 47.377392,11.195891 V -6.6800788e-4 h 3.445096 V 8.61207 h 1.722547 V -6.6800788e-4 H 55.99013 V 11.195891 Z" class="logo-text-u"/>
    <path d="M 60.296502,6.8895224 V 11.195891 H 56.851407 V -6.6800788e-4 h 3.445095 L 62.019049,4.305701 V -6.6800788e-4 h 3.445096 V 11.195891 h -3.445096 z" class="logo-text-n"/>
  </g>
</svg>
